<svg width="14" height="15" viewBox="0 0 14 15" fill="none" xmlns="http://www.w3.org/2000/svg">
<g clip-path="url(#clip0_43_4056)">
<path d="M12.2246 14.5H1.77536C0.811594 14.5 0 13.6884 0 12.7246V2.27536C0 1.31159 0.811594 0.5 1.77536 0.5H12.2246C13.1884 0.5 14 1.31159 14 2.27536V12.7246C14 13.6884 13.1884 14.5 12.2246 14.5Z" fill="#57BBEB"/>
<path d="M2.84106 9.98571C3.60193 11.5582 5.17439 12.5727 7.00048 12.5727C9.63816 12.5727 11.8193 10.2901 11.8193 7.5002C11.8193 6.73933 11.515 6.07991 11.1092 5.57266C10.6019 4.91324 9.89179 4.60889 9.18164 4.60889C8.57295 4.60889 7.96425 4.81179 7.55845 5.16686C7.05121 5.62339 6.94976 6.18136 6.84831 7.0944C6.69613 8.10889 5.88454 8.81904 4.81932 8.81904C3.44976 8.81904 2.63816 8.00744 2.68889 6.6886C2.68889 6.58715 2.68889 6.53643 2.73961 6.43498C2.99323 4.91324 4.61642 3.34078 7.05121 3.3915C8.67439 3.3915 9.94251 3.74657 11.1599 5.01469V4.96397C10.3483 3.44223 8.77584 2.42773 7.00048 2.42773C4.3628 2.42773 2.18164 4.71034 2.18164 7.5002C2.18164 8.26107 2.48599 8.92049 2.89179 9.42773C3.39903 10.0872 4.10918 10.3915 4.81932 10.3915C5.42802 10.3915 6.03671 10.1886 6.44251 9.83353C6.94976 9.37701 7.05121 8.81904 7.15266 7.906C7.30483 6.8915 8.11642 6.18136 9.18164 6.18136C10.5512 6.18136 11.3628 6.99295 11.3121 8.31179C11.3121 8.41324 11.3121 8.46397 11.2614 8.56542C11.0077 10.0872 9.38454 11.6596 6.94976 11.6089C5.32657 11.6089 4.10918 11.2538 2.84106 9.98571Z" fill="#051766"/>
</g>
<defs>
<clipPath id="clip0_43_4056">
<rect width="14" height="14" fill="white" transform="translate(0 0.5)"/>
</clipPath>
</defs>
</svg>
