<svg width="14" height="15" viewBox="0 0 14 15" fill="none" xmlns="http://www.w3.org/2000/svg">
<g clip-path="url(#clip0_155_24247)">
<g clip-path="url(#clip1_155_24247)">
<path d="M9.71414 6.10806C9.66123 6.10806 9.61613 6.10806 9.59088 6.11227C9.56142 6.16518 9.51813 6.23673 9.45379 6.33594C10.4327 6.33427 11.4096 6.42242 12.3724 6.5993L12.0886 6.87348C11.2225 6.71672 10.3436 6.64143 9.46341 6.6486C9.32392 6.6486 9.29445 6.6486 9.26078 6.6486C9.22711 6.69911 9.15135 6.79712 9.07619 6.88911C9.16157 6.8837 9.32632 6.88069 9.55721 6.88069C10.3383 6.87965 11.1181 6.94239 11.8889 7.06829L11.6045 7.34427C10.9339 7.24471 10.2568 7.19467 9.57886 7.19456C9.33835 7.19456 9.07078 7.20297 8.82847 7.2168C8.77375 7.27994 8.63125 7.43386 8.58796 7.48136C8.95122 7.44582 9.31609 7.42936 9.68107 7.43206C10.253 7.4306 10.8244 7.47079 11.3905 7.55231L11.1061 7.82529C10.686 7.77555 10.2634 7.75025 9.84041 7.74953C8.77556 7.74953 7.93558 7.98102 7.06735 8.51134C7.8947 9.39882 9.24996 9.9598 10.5631 9.9598H10.6834L10.224 10.4041C8.33001 10.0482 6.3368 9.21543 4.65264 8.07482C3.03462 6.9799 2.46522 6.65702 1.20255 6.09844L1.19413 5.77375L2.04974 6.14053L2.34135 5.91144L5.13426 7.19095L4.95388 7.33646L3.51864 6.71114L3.37734 6.82177L4.12232 7.23785C4.75005 7.58779 5.23106 7.74412 5.6718 7.74412C6.63864 7.74412 7.50688 7.05867 8.06666 5.85312C8.53482 5.79597 9.00622 5.76946 9.47784 5.77375C10.6207 5.77709 11.7606 5.88903 12.8822 6.10806L12.5852 6.39246C11.8264 6.23433 10.5373 6.10566 9.71414 6.10566M7 14.0797C5.69849 14.0798 4.42617 13.694 3.34395 12.971C2.26173 12.248 1.41822 11.2203 0.920101 10.0179C0.421978 8.81544 0.291615 7.49231 0.545499 6.21579C0.799382 4.93928 1.42611 3.76673 2.34642 2.84642C3.26673 1.92611 4.43928 1.29938 5.71579 1.0455C6.99231 0.791615 8.31544 0.921978 9.51786 1.4201C10.7203 1.91822 11.748 2.76173 12.471 3.84395C13.194 4.92617 13.5798 6.19849 13.5797 7.5C13.5794 9.24495 12.8861 10.9183 11.6522 12.1522C10.4183 13.3861 8.74495 14.0794 7 14.0797ZM7 0.500003C5.61553 0.500003 4.26216 0.910546 3.11101 1.67972C1.95987 2.44889 1.06266 3.54214 0.532846 4.82122C0.00303303 6.1003 -0.13559 7.50777 0.134506 8.86563C0.404603 10.2235 1.07129 11.4708 2.05026 12.4497C3.02922 13.4287 4.2765 14.0954 5.63437 14.3655C6.99224 14.6356 8.3997 14.497 9.67879 13.9672C10.9579 13.4373 12.0511 12.5401 12.8203 11.389C13.5895 10.2379 14 8.88447 14 7.5C14.0009 6.58051 13.8204 5.66986 13.4689 4.82019C13.1175 3.97052 12.6019 3.1985 11.9517 2.54832C11.3015 1.89813 10.5295 1.38255 9.67982 1.03107C8.83014 0.6796 7.9195 0.499133 7 0.500003Z" fill="#0A1D3D"/>
</g>
</g>
<defs>
<clipPath id="clip0_155_24247">
<rect width="14" height="14" fill="white" transform="translate(0 0.5)"/>
</clipPath>
<clipPath id="clip1_155_24247">
<rect width="14" height="14" fill="white" transform="translate(0 0.5)"/>
</clipPath>
</defs>
</svg>
