<svg width="14" height="15" viewBox="0 0 14 15" fill="none" xmlns="http://www.w3.org/2000/svg">
<g clip-path="url(#clip0_155_24234)">
<path d="M8.29088 6.39746C8.22956 6.74104 8.16 7.08824 8.08081 7.43809C8.68682 6.96858 9.30699 6.52857 9.94001 6.12264C10.9951 5.44604 12.0858 4.86412 13.2061 4.39813L14 2.09833L11.67 2.10032L11.5261 2.09833L11.3036 2.10996L11.0891 2.14416L10.9864 2.16514L10.8555 2.20816L10.7147 2.26943L10.59 2.34004L10.4444 2.45999L8.55199 4.52927C8.55198 4.52934 8.55197 4.52942 8.55196 4.52949L8.55211 4.52934C8.48985 5.13428 8.4048 5.75953 8.29088 6.39746Z" fill="#AEA598"/>
<path d="M8.08072 7.4382L8.08074 7.43809L8.0806 7.4382C8.06756 7.49568 8.05422 7.55323 8.04065 7.61084C8.0353 7.63359 8.02977 7.65639 8.02433 7.67916C8.01592 7.71439 8.00749 7.74962 7.99888 7.78489C7.99263 7.81049 7.98625 7.83611 7.9799 7.86172C7.97168 7.89484 7.96343 7.92796 7.95504 7.96112C7.94856 7.98671 7.942 8.01231 7.93542 8.03792C7.92665 8.07203 7.91779 8.10615 7.90883 8.1403C7.9025 8.16441 7.89616 8.18853 7.88973 8.21267C7.87974 8.25022 7.86957 8.2878 7.85935 8.32539C7.85375 8.34595 7.8482 8.3665 7.84253 8.38708C7.82966 8.43382 7.81655 8.4806 7.8033 8.5274C7.80007 8.53881 7.79693 8.55021 7.79368 8.56162C7.75869 8.68447 7.72239 8.80748 7.68479 8.9306C7.68479 8.9306 7.68479 8.9306 7.68479 8.9306C7.6662 8.99149 7.64722 9.05242 7.62798 9.11336C7.62767 9.11432 7.62738 9.11529 7.62708 9.11625C7.62686 9.11693 7.62666 9.11761 7.62644 9.11829C7.62616 9.11919 7.62586 9.1201 7.62557 9.121C7.62474 9.12362 7.62387 9.12624 7.62304 9.12886C7.6056 9.18392 7.58789 9.23899 7.56991 9.29407C7.56692 9.30323 7.56391 9.31239 7.5609 9.32155C7.54381 9.37367 7.52646 9.42579 7.50887 9.47793C7.50565 9.48748 7.50244 9.49704 7.49919 9.50659C7.48096 9.56037 7.46245 9.61416 7.44368 9.66795C7.44128 9.67481 7.43892 9.68167 7.43652 9.68853C7.39334 9.81181 7.3489 9.93511 7.30285 10.0584C7.3259 9.99665 7.34849 9.93492 7.37081 9.87318C7.30315 10.0602 7.2322 10.2472 7.15781 10.4341C7.15784 10.4345 7.15763 10.4352 7.15763 10.4352C7.15562 10.4403 7.15351 10.4453 7.15149 10.4504C7.12522 10.5159 7.09843 10.5814 7.0715 10.6477L7.07015 10.6506L7.06962 10.6519C7.06559 10.6616 7.06149 10.6713 7.05745 10.681C7.03687 10.7305 7.016 10.7802 6.9951 10.8297C6.99087 10.8398 6.98667 10.8499 6.98244 10.8599C6.98194 10.8607 6.9814 10.8618 6.98084 10.8628C6.98072 10.863 6.98058 10.8632 6.98047 10.8635C7.43748 10.5861 7.89633 10.3273 8.35765 10.0852C9.4697 9.50168 10.5964 9.01755 11.7489 8.62082L13.2061 4.39813C12.0858 4.86412 10.995 5.44604 9.93994 6.12265C9.30691 6.52861 8.68673 6.96866 8.08072 7.4382Z" fill="#FFC829"/>
<path d="M8.35774 10.0853C7.89643 10.3273 7.43758 10.5861 6.98054 10.8635C6.98055 10.8635 6.98056 10.8635 6.98057 10.8635C6.98055 10.8635 6.98054 10.8635 6.98053 10.8635L6.98055 10.8637C6.97994 10.8656 6.97883 10.8671 6.97835 10.8688C6.94976 10.9349 6.92113 11.001 6.89183 11.067C6.89006 11.0714 6.88807 11.0756 6.88598 11.0802C6.85693 11.145 6.82753 11.21 6.79814 11.2748C6.79606 11.2799 6.79353 11.2849 6.79112 11.2902C6.76728 11.3424 6.7431 11.3946 6.7184 11.4468C6.71289 11.4587 6.70736 11.4704 6.70189 11.4823C6.69904 11.488 6.69603 11.4937 6.693 11.5001C6.66321 11.5633 6.63282 11.6258 6.60204 11.6885C6.59878 11.6954 6.59497 11.7027 6.59182 11.7095C6.56625 11.7609 6.54068 11.8125 6.51474 11.8638C6.50943 11.8743 6.50421 11.8849 6.49887 11.8954C6.49496 11.9029 6.49111 11.9103 6.48752 11.9176C6.45823 11.9755 6.42808 12.0334 6.39797 12.0912C6.39611 12.0948 6.39429 12.0984 6.39243 12.1019C6.38838 12.1097 6.38387 12.1176 6.37996 12.1256C6.34822 12.1864 6.31563 12.2469 6.28288 12.3074C6.27842 12.3159 6.27369 12.324 6.26919 12.3326C6.23647 12.3928 6.20322 12.4526 6.16988 12.513C6.16514 12.5214 6.15998 12.5301 6.15549 12.5388C6.12166 12.5986 6.08777 12.6581 6.05342 12.7178C6.04826 12.7264 6.04308 12.7354 6.03797 12.7437C6.00656 12.7975 5.9754 12.851 5.94336 12.9043H10.1981L11.7489 8.62091C10.5965 9.01763 9.46976 9.50174 8.35774 10.0853Z" fill="#312E88"/>
<path d="M6.98037 10.8634C6.98052 10.8632 6.98064 10.863 6.98078 10.8627C6.98128 10.8617 6.98178 10.8606 6.98237 10.8597C6.98585 10.8515 6.98935 10.8432 6.99284 10.8349C6.99357 10.8332 6.99431 10.8314 6.99504 10.8297C7.01587 10.7801 7.03669 10.7305 7.05738 10.6809C7.06139 10.6713 7.06548 10.6616 7.06945 10.6519L7.07009 10.6506L7.07132 10.6475C7.09845 10.5814 7.12511 10.516 7.15143 10.4503C7.15343 10.4453 7.15548 10.4403 7.15747 10.4353C7.15745 10.4351 7.15763 10.4346 7.1576 10.4341C7.25659 10.1855 7.34947 9.9366 7.43664 9.68775C7.43889 9.68131 7.44111 9.67487 7.44335 9.66843C7.46156 9.6163 7.47948 9.56416 7.49718 9.51204C7.50207 9.49764 7.50692 9.48324 7.51177 9.46884C7.52659 9.42484 7.54122 9.38085 7.5557 9.33686C7.56192 9.31792 7.56815 9.29899 7.57431 9.28006C7.58704 9.24099 7.59956 9.20194 7.61201 9.16289C7.61909 9.14069 7.62622 9.11848 7.6332 9.09628C7.6452 9.05818 7.65697 9.0201 7.6687 8.98202C7.67527 8.96072 7.68194 8.93941 7.68842 8.91812C7.7037 8.86795 7.71871 8.81781 7.73356 8.76768C7.73879 8.75 7.74399 8.73232 7.74917 8.71465C7.76343 8.66601 7.77755 8.61738 7.7914 8.56879C7.79817 8.54503 7.80475 8.5213 7.81143 8.49756C7.82127 8.46258 7.8311 8.42761 7.84073 8.39266C7.84789 8.36664 7.85492 8.34065 7.86197 8.31464C7.87086 8.28189 7.87971 8.24913 7.88842 8.2164C7.89551 8.18975 7.90252 8.16311 7.90949 8.13647C7.91794 8.10422 7.9263 8.07199 7.93457 8.03977C7.94139 8.01322 7.94818 7.98667 7.95488 7.96014C7.96315 7.92741 7.97129 7.89471 7.97938 7.86201C7.98577 7.83623 7.99218 7.81044 7.99846 7.78468C8.00695 7.74982 8.01526 7.71501 8.02356 7.6802C8.02913 7.6568 8.0348 7.63339 8.04029 7.61002C8.05098 7.56448 8.06143 7.51899 8.0718 7.47353C8.0745 7.46169 8.07731 7.44982 8.07998 7.43799C6.90707 8.34716 5.78722 9.36688 4.72954 10.4633C3.97823 11.2422 3.25827 12.0598 2.57324 12.9043H4.06219C5.03171 12.1348 6.00194 11.4574 6.98039 10.8637L6.98037 10.8634Z" fill="#ED1C24"/>
<path d="M6.05328 12.7178C6.08764 12.6582 6.12152 12.5986 6.15523 12.5387C6.15969 12.5301 6.16489 12.5214 6.16973 12.5129C6.2032 12.4526 6.23633 12.3928 6.26904 12.3324C6.27356 12.324 6.27828 12.3159 6.28274 12.3074C6.3156 12.2468 6.34808 12.1863 6.37981 12.1255C6.38384 12.1175 6.38835 12.1096 6.39228 12.1018C6.39413 12.0983 6.39598 12.0947 6.39783 12.0912C6.42792 12.0334 6.458 11.9755 6.48738 11.9176C6.49098 11.9104 6.49482 11.9029 6.49862 11.8955C6.50401 11.8849 6.50926 11.8743 6.51459 11.8638C6.54047 11.8124 6.56599 11.7608 6.59167 11.7094C6.59483 11.7027 6.59865 11.6955 6.6019 11.6885C6.63279 11.6257 6.66307 11.5632 6.69271 11.5C6.69605 11.4939 6.6989 11.4881 6.70159 11.4822C6.70724 11.4704 6.71268 11.4586 6.71826 11.4468C6.74261 11.3945 6.76715 11.3424 6.79098 11.2902C6.79339 11.2849 6.79592 11.2798 6.798 11.2747C6.82753 11.2099 6.8569 11.1449 6.88584 11.0801C6.88803 11.0755 6.88983 11.0715 6.89169 11.067C6.92087 11.0009 6.94962 10.9349 6.97811 10.8688C6.97868 10.867 6.97981 10.8657 6.98041 10.8637C6.00198 11.4575 5.03177 12.1348 4.06226 12.9043H5.94321C5.97512 12.851 6.00641 12.7975 6.03772 12.7438C6.04293 12.7353 6.04811 12.7264 6.05328 12.7178Z" fill="#502D8C"/>
<path d="M6.37979 12.1256C6.34806 12.1864 6.31558 12.2468 6.28271 12.3074C6.31546 12.2469 6.34806 12.1864 6.37979 12.1256C6.3837 12.1176 6.38822 12.1097 6.39226 12.1019C6.39412 12.0984 6.39594 12.0948 6.39781 12.0912C6.39595 12.0947 6.39411 12.0983 6.39225 12.1019C6.38833 12.1097 6.38382 12.1175 6.37979 12.1256Z" fill="#502D8C"/>
<path d="M8.08009 7.43793C8.08008 7.43796 8.08008 7.43799 8.08007 7.43802C8.08008 7.43801 8.08009 7.43801 8.0801 7.438C8.07742 7.44984 8.07459 7.46172 8.07189 7.47356C8.06152 7.51903 8.05107 7.56451 8.04037 7.61006C8.03488 7.63343 8.02922 7.65684 8.02364 7.68023C8.01534 7.71504 8.00704 7.74986 7.99855 7.78471C7.99227 7.81047 7.98585 7.83626 7.97947 7.86204C7.97137 7.89474 7.96324 7.92744 7.95497 7.96017C7.94827 7.98671 7.94147 8.01325 7.93466 8.0398C7.92638 8.07202 7.91802 8.10425 7.90958 8.1365C7.9026 8.16314 7.8956 8.18978 7.8885 8.21644C7.8798 8.24917 7.87095 8.28192 7.86206 8.31468C7.855 8.34068 7.84798 8.36667 7.84081 8.39269C7.83118 8.42764 7.82135 8.46261 7.81152 8.49759C7.80484 8.52133 7.79826 8.54506 7.79149 8.56882C7.77763 8.61741 7.76351 8.66604 7.74926 8.71468C7.74408 8.73235 7.73888 8.75003 7.73364 8.76772C7.72594 8.79373 7.7181 8.81975 7.71028 8.84577C7.73879 8.75097 7.76674 8.65623 7.7937 8.5616C7.79695 8.55019 7.8001 8.53879 7.80333 8.52738C7.81658 8.48059 7.82968 8.43381 7.84256 8.38706C7.84822 8.36649 7.85378 8.34593 7.85937 8.32537C7.8696 8.28778 7.87976 8.2502 7.88975 8.21265C7.89618 8.18852 7.90253 8.1644 7.90885 8.14028C7.91782 8.10613 7.92668 8.07201 7.93544 8.0379C7.94203 8.01229 7.94859 7.98669 7.95506 7.9611C7.96345 7.92795 7.97171 7.89482 7.97992 7.8617C7.98627 7.83609 7.99266 7.81047 7.99891 7.78488C8.00752 7.7496 8.01594 7.71437 8.02435 7.67914C8.02979 7.65637 8.03532 7.63357 8.04068 7.61082C8.05423 7.55321 8.06759 7.49566 8.08063 7.43818C8.15987 7.08832 8.22948 6.74107 8.29084 6.39745C8.40468 5.75962 8.48968 5.13447 8.55192 4.52948L2.39863 10.8859C1.8384 11.5216 1.0261 12.2104 0 12.9043H2.5733C3.25834 12.0598 3.9783 11.2422 4.72963 10.4634C5.78731 9.36688 6.90717 8.34712 8.08009 7.43793Z" fill="#B11E46"/>
</g>
<defs>
<clipPath id="clip0_155_24234">
<rect width="14" height="10.806" fill="white" transform="translate(0 2.09833)"/>
</clipPath>
</defs>
</svg>
