<?xml version="1.0" encoding="UTF-8"?>
<svg version="1.1" xmlns="http://www.w3.org/2000/svg" width="512" height="512">
<path d="M0 0 C120.12 0 240.24 0 364 0 C361.70255487 31.01550919 361.70255487 31.01550919 360.62730408 42.94889832 C360.50237623 44.35241703 360.377626 45.75595157 360.25303179 47.15949994 C359.91923149 50.91414337 359.58298632 54.66856393 359.24623811 58.42294395 C358.88007242 62.51046252 358.51630571 66.59819477 358.15220642 70.68589783 C357.44263201 78.64803613 356.73091092 86.60998106 356.01839464 94.57185658 C355.18716174 103.86111955 354.35802523 113.15056931 353.52893073 122.44002334 C352.04988341 139.01086812 350.56882526 155.58153256 349.08666992 172.15209961 C347.65040946 188.20956616 346.2158181 204.26718075 344.78295898 220.32495117 C343.21766743 237.86683996 341.65148776 255.40864901 340.08373648 272.95031816 C339.91664416 274.8199347 339.74955213 276.68955127 339.5824604 278.55916786 C339.50026778 279.47881855 339.41807516 280.39846923 339.33339186 281.34598812 C338.75527347 287.81514644 338.17776527 294.28435907 337.60047722 300.75359154 C336.89790796 308.62646062 336.19430068 316.49923614 335.48938125 324.37189516 C335.13006431 328.38506425 334.77119377 332.39827188 334.41355133 336.41159058 C334.08604272 340.08659874 333.75721939 343.76148684 333.42735834 347.43628458 C333.25228216 349.3904589 333.07858937 351.34475701 332.90495056 353.29905957 C332.37244697 359.21651604 331.78822035 365.11091316 331 371 C325.44112886 373.16357294 319.89754476 374.96783925 314.14526367 376.53686523 C313.29633041 376.77162064 312.44739716 377.00637604 311.57273865 377.24824524 C308.77208606 378.0218066 305.97003884 378.79018445 303.16796875 379.55859375 C301.17481786 380.1081454 299.18176253 380.65804376 297.188797 381.20826721 C291.92082971 382.66175877 286.65169395 384.11096741 281.38226318 385.55914307 C275.16015153 387.26982852 268.93921504 388.98478098 262.71837044 390.70006752 C257.59055834 392.11390472 252.46230616 393.52609231 247.33297729 394.93441772 C237.08055715 397.75209199 226.83974688 400.60478497 216.61572266 403.52392578 C213.66237587 404.36319209 210.70885369 405.2018388 207.75530434 406.04039192 C204.99796533 406.8270621 202.24403814 407.62494419 199.49003601 408.42320251 C197.81293367 408.89996359 196.13568068 409.37619519 194.45825195 409.85180664 C193.71526415 410.07119715 192.97227634 410.29058765 192.20677376 410.51662636 C184.00901027 412.8124355 177.31025667 412.14336506 169.25634766 409.83544922 C168.4177889 409.60409806 167.57923014 409.37274691 166.71526051 409.13438511 C163.94538131 408.36756171 161.17982858 407.58620388 158.4140625 406.8046875 C156.45207642 406.25838947 154.48983634 405.71300293 152.52735901 405.16847229 C147.29974179 403.71523026 142.07571701 402.2494592 136.85235214 400.7810173 C131.48466636 399.27414232 126.11389255 397.77835803 120.7434082 396.28149414 C112.31402557 393.93062846 103.88649614 391.57324173 95.46044922 389.21044922 C86.50828735 386.70030386 77.55260244 384.20322557 68.59323883 381.71891785 C64.50040444 380.58368774 60.40838788 379.44551404 56.31634521 378.30743408 C54.23746581 377.72942912 52.15840596 377.15207275 50.0791626 376.57537842 C47.29531256 375.80231157 44.5126954 375.02497929 41.73046875 374.24609375 C40.94039932 374.02756241 40.1503299 373.80903107 39.33631897 373.58387756 C34.11472385 372.11472385 34.11472385 372.11472385 33 371 C32.73503894 369.18697605 32.53255757 367.36478674 32.35488415 365.54113865 C32.23877248 364.36800914 32.1226608 363.19487964 32.0030306 361.98620075 C31.8802292 360.69488918 31.7574278 359.4035776 31.63090515 358.07313538 C31.49867087 356.71249138 31.36619333 355.35187101 31.23348683 353.99127299 C29.78587133 339.06277638 28.44631471 324.12415734 27.11551344 309.18488204 C26.75066006 305.09314788 26.38394591 301.00158036 26.01750183 296.9099884 C25.30468009 288.94753557 24.59355098 280.9849325 23.88310269 273.02226757 C23.30589493 266.5532052 22.72810102 260.08419542 22.14990807 253.61522102 C22.0670537 252.68820796 21.98419933 251.76119489 21.89883422 250.80609052 C21.73044942 248.92213315 21.56206402 247.03817583 21.39367803 245.15421856 C19.82406988 227.59201283 18.25649002 210.02962651 16.68956568 192.46718115 C15.25625118 176.40296319 13.82042447 160.3389709 12.38343123 144.27508163 C10.90359385 127.73200661 9.42538781 111.1887866 7.94897765 94.64540535 C7.12170597 85.37602193 6.29379487 76.10669671 5.4641819 66.83752251 C4.7598771 58.96818651 4.0571157 51.09871458 3.35636667 43.22906112 C2.99899049 39.21607926 2.64089814 35.2031647 2.2808876 31.19041824 C1.95157864 27.51966559 1.62430654 23.8487373 1.29867216 20.1776569 C1.12432972 18.21820916 0.94780462 16.258956 0.77120715 14.29971021 C0.66855538 13.13783502 0.56590361 11.97595983 0.46014118 10.7788763 C0.37063452 9.77634884 0.28112786 8.77382137 0.18890887 7.74091429 C0.01143757 5.16594986 0 2.581073 0 0 Z " fill="#004CE8" transform="translate(74,100)"/>
<path d="M0 0 C75.24 0 150.48 0 228 0 C226.8755157 13.49381166 226.8755157 13.49381166 226.41503906 18.44042969 C226.25885605 20.12355507 226.25885605 20.12355507 226.09951782 21.84068298 C225.98933319 23.02247635 225.87914856 24.20426971 225.765625 25.421875 C225.58461116 27.37226558 225.40359947 29.32265635 225.22267342 31.27305508 C225.03102096 33.33859531 224.8391564 35.40411577 224.64727783 37.46963501 C222.60958338 59.41448817 220.58650949 81.36069208 218.625 103.3125 C218.53017334 104.37326752 218.43534668 105.43403503 218.33764648 106.52694702 C216.93934918 122.19700249 215.57525853 137.86996006 214.2187767 153.54368019 C213.94557538 156.70008783 213.67216892 159.85647764 213.39871216 163.01286316 C212.57737621 172.49500621 211.7568879 181.97721687 210.94151878 191.45987511 C210.60058822 195.42074082 210.25809251 199.38147019 209.91524887 203.34217072 C209.75449755 205.20348348 209.59444237 207.06485651 209.43512344 208.92629242 C209.21472476 211.50058037 208.99191168 214.07464893 208.76855469 216.64868164 C208.70518732 217.39593663 208.64181995 218.14319162 208.57653236 218.91309071 C208.19239517 223.30558101 207.66125543 227.64292501 207 232 C184.4296875 238.26953125 184.4296875 238.26953125 182.21191406 238.88549805 C180.72162385 239.29952238 179.23139061 239.71375183 177.74121094 240.12817383 C174.06573498 241.15006392 170.38945842 242.1688091 166.7109375 243.1796875 C157.00162785 245.85364764 147.3276687 248.63471211 137.67333984 251.50146484 C113.95138942 258.49315533 113.95138942 258.49315533 101.6875 254.8125 C100.08862621 254.34996806 98.48966538 253.88773694 96.890625 253.42578125 C96.07916016 253.18811035 95.26769531 252.95043945 94.43164062 252.70556641 C90.61124824 251.5970389 86.77361206 250.5525254 82.9375 249.5 C77.20909913 247.91762338 71.50573983 246.26660361 65.8125 244.5625 C58.99829599 242.52608051 52.13725733 240.70979641 45.25 238.9375 C21.92991126 232.92991126 21.92991126 232.92991126 20 231 C19.76364077 229.15431739 19.59084382 227.3004578 19.44335938 225.44555664 C19.34655884 224.25664322 19.2497583 223.0677298 19.15002441 221.8427887 C18.99841858 219.89613564 18.99841858 219.89613564 18.84375 217.91015625 C18.73589808 216.56787253 18.62761556 215.22562334 18.5189209 213.88340759 C18.23259866 210.33489196 17.95158179 206.78597614 17.67181396 203.23693848 C17.27937092 198.27026855 16.87990909 193.30415779 16.4810791 188.33799744 C16.26880825 185.69471695 16.05878797 183.05128947 15.84997559 180.4077301 C15.75317505 179.19044724 15.65637451 177.97316437 15.55664062 176.71899414 C15.47305298 175.66055801 15.38946533 174.60212189 15.30334473 173.51161194 C14.91392976 169.00362435 14.45023202 164.5023202 14 160 C29.18 160 44.36 160 60 160 C60.98478112 162.95434335 61.28584664 165.35285057 61.53515625 168.4453125 C61.66567383 170.06179688 61.66567383 170.06179688 61.79882812 171.7109375 C61.9293457 173.40089844 61.9293457 173.40089844 62.0625 175.125 C62.15337891 176.2284375 62.24425781 177.331875 62.33789062 178.46875 C62.82753659 184.66847785 63.09860273 190.7814543 63 197 C63.62261719 197.07476562 64.24523437 197.14953125 64.88671875 197.2265625 C71.87330218 198.22046977 78.48360306 199.89925362 85.25 201.875 C86.15355225 202.13756592 87.05710449 202.40013184 87.98803711 202.6706543 C89.79678146 203.19670216 91.60545752 203.72298487 93.4140625 204.24951172 C97.18492064 205.34388652 100.95737829 206.42093045 104.75 207.4375 C105.94109375 207.76621094 107.1321875 208.09492188 108.359375 208.43359375 C116.156908 209.64672925 123.25321358 207.56654319 130.6875 205.3125 C141.74528659 202.01810549 152.85892784 199.03847423 164 196 C166.475 167.29 166.475 167.29 169 138 C117.19 138 65.38 138 12 138 C11.01 126.45 10.02 114.9 9 103 C8.67 99.37 8.34 95.74 8 92 C62.78 92 117.56 92 174 92 C174.33 84.41 174.66 76.82 175 69 C175.66 61.41 176.32 53.82 177 46 C119.91 46 62.82 46 4 46 C0 5 0 5 0 0 Z " fill="#FEFEFE" transform="translate(142,176)"/>
<path d="M0 0 C48.84 0 97.68 0 148 0 C148 6.85983687 147.92700297 13.35701561 147.25 20.125 C147.16419678 21.02984131 147.07839355 21.93468262 146.98999023 22.86694336 C146.450752 28.51060802 145.88579233 34.15175087 145.32543945 39.79335022 C144.90305332 44.04959484 144.48256332 48.30602559 144.0625 52.5625 C143.93255646 53.87557632 143.93255646 53.87557632 143.79998779 55.21517944 C142.38224102 69.57943495 141.13319979 83.95148287 140.03930664 98.34399414 C139.48697212 105.52860233 138.83670152 112.68539311 138.0078125 119.84375 C136.8096574 130.22190203 136.06702857 140.62488112 135.32275391 151.04370117 C134.71336461 159.51588191 134.05889615 167.96001545 133.01171875 176.390625 C131.90741659 185.30771039 131.21624858 194.24307043 130.53948975 203.20135498 C128.80697878 225.99326119 126.85422061 248.76715032 124.84457397 271.53604126 C124.53071473 275.09461897 124.2208682 278.65351124 123.91445923 282.21273804 C123.54956464 286.44868718 123.17663511 290.6838538 122.797575 294.91855812 C122.65758655 296.49687272 122.52036117 298.07543507 122.38603401 299.65424156 C122.20035541 301.82998368 122.00453847 304.00458425 121.80615234 306.17919922 C121.69830414 307.40516815 121.59045593 308.63113708 121.4793396 309.89425659 C121.03597378 312.7669182 120.66141604 314.63323359 119 317 C116.32330883 318.06429752 113.85161406 318.86301151 111.08203125 319.5859375 C109.88037071 319.9195504 109.88037071 319.9195504 108.6544342 320.25990295 C106.0443961 320.98031431 103.42882633 321.67780738 100.8125 322.375 C99.02129174 322.86466862 97.23043874 323.3556386 95.43994141 323.84790039 C85.01950281 326.70094633 74.57400798 329.46553775 64.10791016 332.14624023 C58.59801382 333.56024316 53.17524996 335.14579262 47.75390625 336.87109375 C38.91300381 339.52980426 29.96056529 341.81516592 21.03955078 344.18798828 C18.38715924 344.89657095 15.73770275 345.61454848 13.08984375 346.33984375 C12.3942334 346.52933594 11.69862305 346.71882813 10.98193359 346.9140625 C9.20751952 347.39795258 7.43380589 347.88440918 5.66015625 348.37109375 C3 349 3 349 0 349 C-0.33 333.49 -0.66 317.98 -1 302 C23.4389881 295.33482143 23.4389881 295.33482143 33.0625 292.875 C39.91227407 291.10761177 46.68210266 289.21988966 53.421875 287.06640625 C59.46443791 285.26551141 65.58107133 283.73866909 71.69335938 282.19335938 C76.90379862 280.86311034 81.98502187 279.4042237 87.03613281 277.55297852 C89 277 89 277 93 277 C93.03738281 276.11248047 93.07476562 275.22496094 93.11328125 274.31054688 C93.86909485 258.19929286 95.37267855 242.13929717 96.77545547 226.07457733 C97.00205071 223.47648705 97.22754108 220.878303 97.45272827 218.28009033 C100.50374806 183.09665181 103.7250075 147.92888887 106.97851562 112.76367188 C107.0716548 111.75651501 107.16479397 110.74935814 107.26075554 109.71168137 C107.70976169 104.85688037 108.15942259 100.00214192 108.61038208 95.14752197 C109.31031383 87.59805611 110.00617064 80.04902208 110.63427734 72.49316406 C110.7665699 70.90503403 110.7665699 70.90503403 110.90153503 69.28482056 C111.04803198 67.49661305 111.19045231 65.708061 111.32661438 63.91903687 C111.84959889 57.48267705 112.92505999 51.44964008 114 45 C76.38 45 38.76 45 0 45 C0 30.15 0 15.3 0 0 Z " fill="#0065F3" transform="translate(256,131)"/>
<path d="M0 0 C15.18 0 30.36 0 46 0 C46.98478112 2.95434335 47.28584664 5.35285057 47.53515625 8.4453125 C47.66567383 10.06179688 47.66567383 10.06179688 47.79882812 11.7109375 C47.9293457 13.40089844 47.9293457 13.40089844 48.0625 15.125 C48.15337891 16.2284375 48.24425781 17.331875 48.33789062 18.46875 C48.82753659 24.66847785 49.09860273 30.7814543 49 37 C49.62261719 37.07476562 50.24523437 37.14953125 50.88671875 37.2265625 C59.52525333 38.45547537 67.71631432 40.8038316 76.0703125 43.26953125 C84.02457814 45.59083539 92.01623253 47.78228681 100 50 C100 65.51 100 81.02 100 97 C94.69342928 96.33667866 90.58424411 95.74389576 85.625 94.25 C84.41714844 93.89292969 83.20929688 93.53585937 81.96484375 93.16796875 C81.32401855 92.9776709 80.68319336 92.78737305 80.02294922 92.59130859 C76.42303348 91.53905227 72.8039562 90.55608316 69.1875 89.5625 C63.37547737 87.95966991 57.5878506 86.29240868 51.8125 84.5625 C44.99834259 82.5259364 38.13725035 80.70979461 31.25 78.9375 C7.92991126 72.92991126 7.92991126 72.92991126 6 71 C5.76364077 69.15431739 5.59084382 67.3004578 5.44335938 65.44555664 C5.34655884 64.25664322 5.2497583 63.0677298 5.15002441 61.8427887 C5.04895386 60.54501999 4.9478833 59.24725128 4.84375 57.91015625 C4.73589808 56.56787253 4.62761556 55.22562334 4.5189209 53.88340759 C4.23259866 50.33489196 3.95158179 46.78597614 3.67181396 43.23693848 C3.27937092 38.27026855 2.87990909 33.30415779 2.4810791 28.33799744 C2.26880825 25.69471695 2.05878797 23.05128947 1.84997559 20.4077301 C1.70477478 18.5818058 1.70477478 18.5818058 1.55664062 16.71899414 C1.47305298 15.66055801 1.38946533 14.60212189 1.30334473 13.51161194 C0.91392976 9.00362435 0.45023202 4.5023202 0 0 Z " fill="#E8E9EA" transform="translate(156,336)"/>
<path d="M0 0 C75.24 0 150.48 0 228 0 C228 1.65 228 3.3 228 5 C227.67 3.68 227.34 2.36 227 1 C189.71 1 152.42 1 114 1 C114 15.52 114 30.04 114 45 C135.12 45 156.24 45 178 45 C178 47.97 178 50.94 178 54 C177.67 54 177.34 54 177 54 C177 51.36 177 48.72 177 46 C119.91 46 62.82 46 4 46 C0 5 0 5 0 0 Z " fill="#E5E7EB" transform="translate(142,176)"/>
<path d="M0 0 C54.78 0 109.56 0 166 0 C166 0.33 166 0.66 166 1 C146.2 1 126.4 1 106 1 C106 15.52 106 30.04 106 45 C124.48 45 142.96 45 162 45 C162 46.65 162 48.3 162 50 C161.67 48.68 161.34 47.36 161 46 C109.19 46 57.38 46 4 46 C3.01 34.45 2.02 22.9 1 11 C0.67 7.37 0.34 3.74 0 0 Z " fill="#E6E8EB" transform="translate(150,268)"/>
<path d="M0 0 C18.15 0 36.3 0 55 0 C55 6.6 55 13.2 55 20 C44.44 20 33.88 20 23 20 C23 21.32 23 22.64 23 24 C33.56 24 44.12 24 55 24 C55 39.18 55 54.36 55 70 C36.85 70 18.7 70 0 70 C0 63.07 0 56.14 0 49 C10.56 49 21.12 49 32 49 C32 47.68 32 46.36 32 45 C21.44 45 10.88 45 0 45 C0 30.15 0 15.3 0 0 Z " fill="#000000" transform="translate(292,0)"/>
<path d="M0 0 C18.15 0 36.3 0 55 0 C55 6.6 55 13.2 55 20 C44.44 20 33.88 20 23 20 C23 21.32 23 22.64 23 24 C33.56 24 44.12 24 55 24 C55 39.18 55 54.36 55 70 C36.85 70 18.7 70 0 70 C0 63.07 0 56.14 0 49 C10.56 49 21.12 49 32 49 C32 47.68 32 46.36 32 45 C21.44 45 10.88 45 0 45 C0 30.15 0 15.3 0 0 Z " fill="#000000" transform="translate(226,0)"/>
<path d="M0 0 C18.15 0 36.3 0 55 0 C55 12.375 55 12.375 54.6328125 16.56323242 C54.55272949 17.50337692 54.47264648 18.44352142 54.39013672 19.41215515 C54.25889404 20.86909538 54.25889404 20.86909538 54.125 22.35546875 C53.99182373 23.89694328 53.99182373 23.89694328 53.85595703 25.46955872 C53.57505149 28.70927531 53.28764334 31.94837541 53 35.1875 C52.80685893 37.401655 52.61414667 39.61584746 52.421875 41.83007812 C51.95286764 47.22049449 51.47853933 52.61042193 51 58 C46.38366409 59.77441479 41.84389535 61.41628874 37.05859375 62.68359375 C35.98673828 62.96968506 34.91488281 63.25577637 33.81054688 63.55053711 C32.69744141 63.84323486 31.58433594 64.13593262 30.4375 64.4375 C28.71563477 64.89491577 28.71563477 64.89491577 26.95898438 65.36157227 C24.68122351 65.96650213 22.40307582 66.56997769 20.12451172 67.171875 C17.4256063 67.8871967 14.72951817 68.61154345 12.03515625 69.34375 C11.337854 69.53267822 10.64055176 69.72160645 9.92211914 69.91625977 C8.13546043 70.40076584 6.34897314 70.88590389 4.5625 71.37109375 C2 72 2 72 0 72 C0 48.24 0 24.48 0 0 Z " fill="#0065F4" transform="translate(256,314)"/>
<path d="M0 0 C18.15 0 36.3 0 55 0 C55 7.59 55 15.18 55 23 C44.44 23 33.88 23 23 23 C23 30.59 23 38.18 23 46 C33.56 46 44.12 46 55 46 C55 53.59 55 61.18 55 69 C36.85 69 18.7 69 0 69 C0 46.23 0 23.46 0 0 Z " fill="#000000" transform="translate(160,0)"/>
<path d="M0 0 C20.79 0 41.58 0 63 0 C63 13.79384328 63 13.79384328 62.34375 20.609375 C62.25528809 21.59381592 62.25528809 21.59381592 62.16503906 22.59814453 C61.94922309 24.98263434 61.72412257 27.3662766 61.5 29.75 C61.005 35.1125 60.51 40.475 60 46 C40.2 46 20.4 46 0 46 C0 30.82 0 15.64 0 0 Z " fill="#0065F4" transform="translate(256,222)"/>
</svg>
