<?xml version="1.0" encoding="UTF-8"?>
<svg version="1.1" xmlns="http://www.w3.org/2000/svg" width="512" height="512">
<path d="M0 0 C0.7321875 -0.00128906 1.464375 -0.00257812 2.21875 -0.00390625 C5.45608401 0.79988387 7.07741748 2.27547744 9.5 4.5625 C10.94270325 7.59231567 10.94270325 7.59231567 12.10864258 11.19970703 C12.43745123 12.19360301 12.43745123 12.19360301 12.77290249 13.20757771 C13.49607427 15.4069671 14.19523883 17.6132259 14.89453125 19.8203125 C15.40268757 21.38214301 15.91230136 22.94349998 16.42327881 24.50440979 C17.7891454 28.69085466 19.13436534 32.88366977 20.47569656 37.07802963 C21.87608389 41.44496823 23.29546285 45.80572618 24.71264648 50.16723633 C27.75534682 59.54368085 30.77136197 68.92856357 33.77975464 78.31606293 C34.84290717 81.63202354 35.90876535 84.94711053 36.97460938 88.26220703 C39.63285037 96.53374996 42.28707795 104.80652597 44.91918945 113.08642578 C48.24524619 123.54733147 51.60936651 133.9945006 55.02734375 144.42578125 C55.40323135 145.5732634 55.77911896 146.72074554 56.16639709 147.90299988 C57.98193566 153.44170223 59.80190248 158.9789098 61.62719727 164.5144043 C62.27234985 166.47833589 62.91745353 168.44228355 63.5625 170.40625 C64.01114662 171.75998466 64.01114662 171.75998466 64.46885681 173.1410675 C64.87292503 174.37351448 64.87292503 174.37351448 65.28515625 175.63085938 C65.52113525 176.34608765 65.75711426 177.06131592 66.00024414 177.79821777 C66.5 179.5625 66.5 179.5625 66.5 181.5625 C128.54 181.5625 190.58 181.5625 254.5 181.5625 C255.985 176.1175 255.985 176.1175 257.5 170.5625 C258.47512733 167.3705898 259.46459415 164.18905166 260.484375 161.01171875 C260.7724704 160.10860458 261.0605658 159.20549042 261.35739136 158.27500916 C262.31874793 155.26575372 263.28413895 152.25781248 264.25 149.25 C264.75838409 147.66273102 264.75838409 147.66273102 265.27703857 146.043396 C269.85385471 131.75866097 274.49371932 117.49532671 279.1796875 103.24609375 C279.54387818 102.13864115 279.54387818 102.13864115 279.91542625 101.00881577 C282.39431587 93.47262612 284.87699165 85.93769195 287.36406612 78.4041996 C291.96779618 64.45624245 296.55557754 50.50670945 300.94140625 36.48828125 C301.43456329 34.9156955 301.43456329 34.9156955 301.93768311 33.31134033 C303.42105172 28.5743874 304.89168729 23.83411164 306.34033203 19.08642578 C306.84506831 17.46246894 307.35009333 15.8386018 307.85546875 14.21484375 C308.06796768 13.50064774 308.28046661 12.78645172 308.49940491 12.0506134 C309.82711606 7.82734234 311.46363678 4.79178028 314.5 1.5625 C316.77248238 0.42625881 318.28302764 0.29803157 320.8125 0.1875 C321.57175781 0.13851563 322.33101563 0.08953125 323.11328125 0.0390625 C326.69412504 0.82438667 328.11328077 2.8396838 330.5 5.5625 C331.86677551 8.48478699 331.86677551 8.48478699 332.92504883 11.76245117 C333.53869293 13.62498535 333.53869293 13.62498535 334.16473389 15.52514648 C334.59581365 16.88515443 335.02656983 18.24526497 335.45703125 19.60546875 C335.92010666 21.03020848 336.38451276 22.45451629 336.85015869 23.87841797 C338.09616317 27.7014292 339.32330399 31.5302549 340.54695511 35.36046982 C341.83399256 39.37775851 343.1386275 43.3893266 344.44116211 47.40161133 C347.25730854 56.08782472 350.04919017 64.78170421 352.83279419 73.47839355 C353.815219 76.54712864 354.79930521 79.6153307 355.78320312 82.68359375 C358.339668 90.66070502 360.89151589 98.63926251 363.4309082 106.62182617 C369.2397815 124.86275233 375.22397067 143.04486946 381.21302795 161.22719955 C388.33665108 182.85490939 395.38361097 204.50427636 402.26171875 226.21166992 C404.91237226 234.5657317 407.57589397 242.9060222 410.48046875 251.17578125 C411.1314856 253.04556641 411.1314856 253.04556641 411.7956543 254.953125 C412.55090378 257.09899501 413.32210324 259.23938902 414.11645508 261.37109375 C416.91420838 269.31075839 417.88409557 277.67202899 415.5625 285.875 C408.54765303 295.01555818 398.19239449 301.25184144 388.89501953 307.85693359 C385.08222722 310.57213921 381.29187769 313.31820323 377.5 316.0625 C375.99883554 317.14732588 374.49753322 318.23196102 372.99609375 319.31640625 C372.25343262 319.85281738 371.51077148 320.38922852 370.74560547 320.94189453 C368.50994555 322.55532251 366.27275484 324.16660578 364.03515625 325.77734375 C356.32537027 331.33054624 348.64242369 336.91687205 341 342.5625 C331.14592179 349.84192622 321.21425666 357.01080324 311.27050781 364.16699219 C302.81406964 370.2548875 294.38111091 376.37118741 286 382.5625 C276.14592179 389.84192622 266.21425666 397.01080324 256.27050781 404.16699219 C247.81406964 410.2548875 239.38111091 416.37118741 231 422.5625 C222.62051542 428.75261119 214.18892637 434.86724309 205.73388672 440.95361328 C201.24499352 444.18659756 196.76206377 447.4278482 192.27832031 450.66796875 C188.36932681 453.49217799 184.45796255 456.31301921 180.54296875 459.12890625 C179.73021484 459.71414063 178.91746094 460.299375 178.08007812 460.90234375 C176.52876004 462.01929277 174.97672031 463.13524047 173.42382812 464.25 C172.72064453 464.75660156 172.01746094 465.26320313 171.29296875 465.78515625 C170.63216309 466.25840332 169.97135742 466.73165039 169.29052734 467.21923828 C167.29255003 468.67618406 167.29255003 468.67618406 164.80078125 470.99609375 C162.5 472.5625 162.5 472.5625 160.10693359 472.3293457 C157.37545762 471.52586509 155.74315003 470.57499384 153.48828125 468.859375 C152.36570923 468.01717407 152.36570923 468.01717407 151.22045898 467.15795898 C150.42583252 466.54895752 149.63120605 465.93995605 148.8125 465.3125 C147.10218738 464.02651227 145.39123478 462.7413753 143.6796875 461.45703125 C142.8144043 460.80428223 141.94912109 460.1515332 141.05761719 459.47900391 C137.21969588 456.6031274 133.33182272 453.79877604 129.4375 451 C127.94530347 449.9244917 126.45311598 448.84897085 124.9609375 447.7734375 C123.47404479 446.70300489 121.9870657 445.63269227 120.5 444.5625 C111.21478923 437.88023925 101.95050301 431.17360993 92.75 424.375 C86.23131921 419.55855784 79.6755172 414.80227065 73.0703125 410.10546875 C61.83484157 402.11404225 50.69855572 393.98827605 39.60888672 385.79614258 C31.2856412 379.65376792 22.89600805 373.60483081 14.5 367.5625 C4.49449602 360.36186792 -5.47688478 353.11999214 -15.39208984 345.79541016 C-22.9766884 340.19817826 -30.6158833 334.67841373 -38.26611328 329.17138672 C-42.76011909 325.93472024 -47.24808801 322.68968643 -51.73706055 319.44604492 C-55.55931119 316.68467405 -59.38340812 313.92592547 -63.2109375 311.171875 C-66.97347707 308.46387991 -70.72976681 305.74743427 -74.48144531 303.02441406 C-75.77024886 302.09101353 -77.06106847 301.16038616 -78.35449219 300.23339844 C-93.14363575 289.63159276 -93.14363575 289.63159276 -95.5 282.5625 C-96.5366256 272.32274851 -94.11579792 263.62586665 -90.8125 254.08203125 C-90.31668859 252.60220776 -89.82270002 251.12177246 -89.33039856 249.64077759 C-88.28438499 246.50561533 -87.22678668 243.37472209 -86.15933228 240.24679565 C-84.47429509 235.30846878 -82.81608195 230.36140226 -81.1628418 225.41235352 C-79.49633251 220.42647876 -77.82898853 215.44091346 -76.15275574 210.45829773 C-71.74295841 197.34566731 -67.48717506 184.1895028 -63.3125 171 C-57.10730427 151.46003938 -50.73287075 131.97788615 -44.32255936 112.50456238 C-38.3955325 94.49851167 -32.5178584 76.47895217 -26.76016235 58.41781616 C-25.76778255 55.30576515 -24.77332427 52.19438674 -23.77807617 49.08325195 C-23.15283014 47.12841857 -22.52758594 45.17358461 -21.90234375 43.21875 C-21.45782112 41.82906258 -21.45782112 41.82906258 -21.00431824 40.41130066 C-19.4415158 35.52175715 -17.88883189 30.62922458 -16.34762573 25.73283386 C-15.34755021 22.56812945 -14.32883357 19.40951934 -13.3125 16.25 C-12.98604492 15.19449951 -12.65958984 14.13899902 -12.32324219 13.05151367 C-10.26719671 6.7369029 -7.79675804 -0.23335367 0 0 Z " fill="#FC3818" transform="translate(95.5,19.4375)"/>
<path d="M0 0 C8.25643851 8.06646736 15.26383183 17.23877296 22.25 26.40234375 C25.38905901 30.5188965 28.56911089 34.60323312 31.75 38.6875 C32.34047119 39.44595215 32.93094238 40.2044043 33.53930664 40.98583984 C34.75024431 42.54124162 35.96126391 44.09657961 37.17236328 45.65185547 C38.98986598 47.98697983 40.80575788 50.3233471 42.62109375 52.66015625 C47.89836793 59.45252347 53.17972897 66.24123445 58.5 73 C65.64584422 82.07793711 72.72424644 91.20835606 79.81152344 100.33203125 C85.69157631 107.900731 91.57179176 115.46892321 97.5 123 C104.64584422 132.07793711 111.72424644 141.20835606 118.81152344 150.33203125 C124.69157631 157.900731 130.57179176 165.46892321 136.5 173 C143.64584422 182.07793711 150.72424644 191.20835606 157.81152344 200.33203125 C163.69157631 207.900731 169.57179176 215.46892321 175.5 223 C182.64584422 232.07793711 189.72424644 241.20835606 196.81152344 250.33203125 C198.60321007 252.6382585 200.39523766 254.94422014 202.1875 257.25 C203.05628784 258.36785889 203.05628784 258.36785889 203.94262695 259.50830078 C207.61244137 264.22655942 211.30032043 268.93013729 215 273.625 C218.73621115 278.36659649 222.40899755 283.14729398 226 288 C229.93406147 286.68864618 230.84500863 284.8842825 233.3125 281.5625 C234.20885566 280.36920555 235.10603738 279.17653129 236.00390625 277.984375 C236.48617676 277.34048828 236.96844727 276.69660156 237.46533203 276.03320312 C240.18636869 272.42824078 242.97143756 268.87318489 245.75 265.3125 C246.94937073 263.77225375 248.14858757 262.23188766 249.34765625 260.69140625 C249.94980957 259.91812988 250.55196289 259.14485352 251.17236328 258.34814453 C252.98986598 256.01302017 254.80575788 253.6766529 256.62109375 251.33984375 C262.33609465 243.9840795 268.06217714 236.63772112 273.82373047 229.31835938 C279.91662199 221.5722205 285.95422261 213.78291989 292 206 C298.92114399 197.09019308 305.84540633 188.18348234 312.82373047 179.31835938 C318.91662199 171.5722205 324.95422261 163.78291989 331 156 C337.92114399 147.09019308 344.84540633 138.18348234 351.82373047 129.31835938 C357.91662199 121.5722205 363.95422261 113.78291989 370 106 C376.92114399 97.09019308 383.84540633 88.18348234 390.82373047 79.31835938 C396.91662199 71.5722205 402.95422261 63.78291989 409 56 C415.91439122 47.09888613 422.82919514 38.19866261 429.80395508 29.34472656 C432.42034624 26.02028026 435.02355438 22.68599069 437.6171875 19.34375 C438.24044922 18.54066406 438.86371094 17.73757812 439.50585938 16.91015625 C440.71906117 15.34579783 441.93135487 13.78073458 443.14257812 12.21484375 C446.35303926 8.07494115 449.61874631 4.0017834 453 0 C455 1 455 1 455.81187439 2.86558533 C456.07625809 3.68458817 456.34064178 4.503591 456.61303711 5.34741211 C456.91809174 6.27984741 457.22314636 7.21228271 457.53744507 8.17297363 C457.86411163 9.19741577 458.1907782 10.22185791 458.52734375 11.27734375 C459.04513901 12.86971863 459.04513901 12.86971863 459.57339478 14.4942627 C460.70249959 17.97289228 461.82058143 21.45494012 462.9375 24.9375 C463.70584805 27.32119027 464.47464822 29.70473485 465.24389648 32.08813477 C466.40013799 35.67072149 467.55580655 39.2534797 468.70832825 42.83726501 C470.93985582 49.76548474 473.22305127 56.67271127 475.5703125 63.5625 C476.33290268 65.82437431 477.09393609 68.08676499 477.85427856 70.34939575 C478.31916952 71.72006986 478.79054737 73.08856435 479.26901245 74.45455933 C482.5970652 83.96896244 484.8802916 93.35630301 482.0625 103.3125 C475.04765303 112.45305818 464.69239449 118.68934144 455.39501953 125.29443359 C451.58222722 128.00963921 447.79187769 130.75570323 444 133.5 C442.49883554 134.58482588 440.99753322 135.66946102 439.49609375 136.75390625 C438.75343262 137.29031738 438.01077148 137.82672852 437.24560547 138.37939453 C435.00994555 139.99282251 432.77275484 141.60410578 430.53515625 143.21484375 C422.82537027 148.76804624 415.14242369 154.35437205 407.5 160 C397.64592179 167.27942622 387.71425666 174.44830324 377.77050781 181.60449219 C369.31406964 187.6923875 360.88111091 193.80868741 352.5 200 C342.64592179 207.27942622 332.71425666 214.44830324 322.77050781 221.60449219 C314.31406964 227.6923875 305.88111091 233.80868741 297.5 240 C289.12051542 246.19011119 280.68892637 252.30474309 272.23388672 258.39111328 C267.74499352 261.62409756 263.26206377 264.8653482 258.77832031 268.10546875 C254.86932681 270.92967799 250.95796255 273.75051921 247.04296875 276.56640625 C246.23021484 277.15164063 245.41746094 277.736875 244.58007812 278.33984375 C243.02876004 279.45679277 241.47672031 280.57274047 239.92382812 281.6875 C239.22064453 282.19410156 238.51746094 282.70070313 237.79296875 283.22265625 C237.13216309 283.69590332 236.47135742 284.16915039 235.79052734 284.65673828 C233.79255003 286.11368406 233.79255003 286.11368406 231.30078125 288.43359375 C229 290 229 290 226.60693359 289.7668457 C223.87545762 288.96336509 222.24315003 288.01249384 219.98828125 286.296875 C218.86570923 285.45467407 218.86570923 285.45467407 217.72045898 284.59545898 C216.92583252 283.98645752 216.13120605 283.37745605 215.3125 282.75 C213.60218738 281.46401227 211.89123478 280.1788753 210.1796875 278.89453125 C209.3144043 278.24178223 208.44912109 277.5890332 207.55761719 276.91650391 C203.71969588 274.0406274 199.83182272 271.23627604 195.9375 268.4375 C194.44530347 267.3619917 192.95311598 266.28647085 191.4609375 265.2109375 C189.97404479 264.14050489 188.4870657 263.07019227 187 262 C177.71478923 255.31773925 168.45050301 248.61110993 159.25 241.8125 C152.73131921 236.99605784 146.1755172 232.23977065 139.5703125 227.54296875 C128.33484157 219.55154225 117.19855572 211.42577605 106.10888672 203.23364258 C97.7856412 197.09126792 89.39600805 191.04233081 81 185 C70.99449602 177.79936792 61.02311522 170.55749214 51.10791016 163.23291016 C43.5233116 157.63567826 35.8841167 152.11591373 28.23388672 146.60888672 C23.73988091 143.37222024 19.25191199 140.12718643 14.76293945 136.88354492 C10.94068881 134.12217405 7.11659188 131.36342547 3.2890625 128.609375 C-0.47347707 125.90137991 -4.22976681 123.18493427 -7.98144531 120.46191406 C-9.27024886 119.52851353 -10.56106847 118.59788616 -11.85449219 117.67089844 C-26.64363575 107.06909276 -26.64363575 107.06909276 -29 100 C-30.168058 89.27176137 -27.32230312 80.18237765 -23.890625 70.21875 C-23.36037954 68.63237646 -22.83191076 67.04540809 -22.30511475 65.45788574 C-20.9229617 61.30775166 -19.5180625 57.16569252 -18.10766602 53.02508545 C-16.68621706 48.84014631 -15.28493525 44.64847696 -13.8828125 40.45703125 C-12.29955759 35.72546705 -10.71479677 30.99451931 -9.11236572 26.26940918 C-8.62709396 24.83658347 -8.14204164 23.40368342 -7.65722656 21.97070312 C-7.42735172 21.29129417 -7.19747688 20.61188522 -6.96063614 19.91188812 C-5.11633511 14.42479021 -3.41677956 8.90262568 -1.77435303 3.35144043 C-1 1 -1 1 0 0 Z " fill="#FFA000" transform="translate(29,202)"/>
<path d="M0 0 C43.56 0 87.12 0 132 0 C145.84714655 41.54143964 145.84714655 41.54143964 150.18359375 54.734375 C150.69196171 56.27928616 151.20037606 57.82418205 151.70883179 59.36906433 C153.01950068 63.35216395 154.32919488 67.33558322 155.63849258 71.31913376 C156.45245711 73.79550488 157.26665577 76.27179892 158.0809021 78.74807739 C164.34649551 97.80410785 170.60850798 116.86130564 176.8125 135.9375 C177.06313202 136.70727173 177.31376404 137.47704346 177.57199097 138.2701416 C178.26411089 140.39713151 178.95467763 142.52461786 179.64453125 144.65234375 C180.00909424 145.77632568 180.37365723 146.90030762 180.74926758 148.05834961 C181.81212395 151.3736786 182.82717377 154.70285536 183.84350586 158.03271484 C185.87693039 164.65528339 188.02006081 171.23842192 190.19516754 177.81565857 C190.88463185 179.90059534 191.57248157 181.98605917 192.25994873 184.07165527 C193.24652586 187.06454178 194.23358868 190.05726745 195.22094727 193.04989624 C199.83108424 207.02762234 204.41711876 221.01331748 209 235 C209.22765045 235.69474426 209.4553009 236.38948853 209.68984985 237.10528564 C212.29219192 245.04930214 214.88326484 252.99685211 217.45275879 260.9515686 C218.14874812 263.10214643 218.8478673 265.25171395 219.5501709 267.40023804 C220.51069886 270.34098153 221.46006117 273.28508597 222.40625 276.23046875 C222.68837341 277.08644653 222.97049683 277.94242432 223.26116943 278.82434082 C225.1143563 284.65693109 225.1143563 284.65693109 224 288 C215.01425645 276.59360717 206.09628518 265.1352717 197.18847656 253.66796875 C191.30842369 246.099269 185.42820824 238.53107679 179.5 231 C172.35415578 221.92206289 165.27575356 212.79164394 158.18847656 203.66796875 C152.30842369 196.099269 146.42820824 188.53107679 140.5 181 C133.35415578 171.92206289 126.27575356 162.79164394 119.18847656 153.66796875 C113.30842369 146.099269 107.42820824 138.53107679 101.5 131 C94.35415578 121.92206289 87.27575356 112.79164394 80.18847656 103.66796875 C74.30842369 96.099269 68.42820824 88.53107679 62.5 81 C55.35415578 71.92206289 48.27575356 62.79164394 41.18847656 53.66796875 C35.30842114 46.09926572 29.42783503 38.53137356 23.5 31 C19.17953042 25.50622961 14.86514598 20.00774392 10.5625 14.5 C9.97082031 13.74589844 9.37914062 12.99179688 8.76953125 12.21484375 C8.2075 11.49425781 7.64546875 10.77367187 7.06640625 10.03125 C6.57084229 9.39767578 6.07527832 8.76410156 5.56469727 8.11132812 C3.61241283 5.47700829 1.8187955 2.72819325 0 0 Z " fill="#FE6C17" transform="translate(30,202)"/>
<path d="M0 0 C43.56 0 87.12 0 132 0 C130.02 2.64 128.04 5.28 126 8 C124.63681641 9.84078125 124.63681641 9.84078125 123.24609375 11.71875 C117.62556156 19.29771125 111.85100265 26.70692758 105.859375 33.99584961 C101.56537779 39.24357025 97.48523177 44.62671366 93.44702148 50.07250977 C89.60302017 55.24015603 85.61636383 60.27535451 81.57006836 65.28540039 C77.80100031 69.96506647 74.13475983 74.71545817 70.5 79.5 C65.85640833 85.61046268 61.12397143 91.63744428 56.31079102 97.61499023 C52.71510388 102.08683222 49.19542965 106.61072037 45.70922852 111.16821289 C42.75205915 115.03139362 39.76095469 118.866113 36.75 122.6875 C32.54403062 128.02740232 28.3591063 133.38320684 24.1875 138.75 C23.600896 139.50466553 23.01429199 140.25933105 22.40991211 141.03686523 C20.60634319 143.3577045 18.8031078 145.67880247 17 148 C10.07885601 156.90980692 3.15459367 165.81651766 -3.82373047 174.68164062 C-9.91662199 182.4277795 -15.95422261 190.21708011 -22 198 C-28.92114399 206.90980692 -35.84540633 215.81651766 -42.82373047 224.68164062 C-48.91662199 232.4277795 -54.95422261 240.21708011 -61 248 C-63.39539825 251.08367171 -65.79115875 254.16706104 -68.1875 257.25 C-68.76669189 257.99523926 -69.34588379 258.74047852 -69.94262695 259.50830078 C-73.61244137 264.22655942 -77.30032043 268.93013729 -81 273.625 C-84.73621115 278.36659649 -88.40899755 283.14729398 -92 288 C-93.10090616 284.69728152 -92.95199625 284.10774162 -91.89868164 280.95483398 C-91.62923737 280.13330841 -91.35979309 279.31178284 -91.08218384 278.46536255 C-90.62578018 277.11932449 -90.62578018 277.11932449 -90.16015625 275.74609375 C-89.69142593 274.32754593 -89.69142593 274.32754593 -89.21322632 272.88034058 C-88.53117578 270.81922359 -87.84508014 268.75944191 -87.15548706 266.70083618 C-85.6626835 262.24376616 -84.18926421 257.78036737 -82.71504211 253.31712341 C-81.94586028 250.98849798 -81.17573463 248.66018412 -80.40470886 246.33216858 C-76.98890136 236.00756586 -73.6745661 225.65230705 -70.38278198 215.28762817 C-63.3183942 193.0535652 -56.05435681 170.88757364 -48.75215149 148.73083878 C-42.14440037 128.68075085 -35.59281621 108.61592418 -29.1875 88.5 C-23.59774872 70.94903765 -17.87140728 53.45971112 -12 36 C-8.04 24.12 -4.08 12.24 0 0 Z " fill="#FE6C17" transform="translate(350,202)"/>
</svg>
