<?xml version="1.0" encoding="UTF-8"?>
<svg version="1.1" xmlns="http://www.w3.org/2000/svg" width="512" height="512">
<path d="M0 0 C120.12 0 240.24 0 364 0 C361.70254709 32.16434076 361.70254709 32.16434076 360.62730408 44.07588196 C360.50233955 45.48097318 360.37759098 46.88608362 360.25303179 48.29121083 C359.91961911 52.04556087 359.58323729 55.79963905 359.24623811 59.55366862 C358.8797495 63.6424851 358.51618179 67.73156159 358.15220642 71.82060242 C357.44300361 79.78296995 356.73118767 87.74510168 356.01839464 95.70714853 C355.18687304 104.9963727 354.35788056 114.28582208 353.52893073 123.57527604 C352.05026442 140.14452779 350.56913223 156.71355819 349.08666992 173.2824707 C347.64997182 189.33989836 346.21538432 205.39751288 344.78295898 221.45532227 C343.21801166 238.99870446 341.65188986 256.54198106 340.08373648 274.08507699 C339.91664379 275.95437914 339.74955176 277.82368135 339.5824604 279.69298363 C339.50026778 280.61248004 339.41807516 281.53197645 339.33339186 282.47933638 C338.75510992 288.94946251 338.17764369 295.41966114 337.60047722 301.88988686 C336.89825296 309.7616934 336.19467685 317.63337775 335.48938125 325.50490973 C335.12984132 329.51794227 334.77089103 333.53102519 334.41355133 337.5442543 C334.08642355 341.21797133 333.75757472 344.8915301 333.42735834 348.56497075 C333.25198624 350.52080438 333.0784346 352.47680097 332.90495056 354.43280298 C332.40446015 359.98211296 331.87284333 365.49607788 331 371 C325.68361333 373.06177686 320.39951396 374.82886889 314.89892578 376.3215332 C314.12860236 376.53381813 313.35827894 376.74610306 312.56461239 376.96482086 C310.02577805 377.66358512 307.48555265 378.35714675 304.9453125 379.05078125 C303.14056196 379.54665345 301.33591216 380.04289244 299.53135681 380.53947449 C294.7218208 381.86207879 289.91112183 383.18040109 285.10011673 384.49765015 C277.17520089 386.66819238 269.25191449 388.84468082 261.32874489 391.02158737 C259.3610638 391.56219155 257.3933399 392.10263988 255.42557335 392.64293289 C243.40323102 395.94472002 231.39218838 399.28127783 219.40234375 402.69921875 C218.21958862 403.03544754 217.0368335 403.37167633 215.8182373 403.71809387 C210.56465094 405.21250029 205.31434035 406.71693507 200.06884766 408.23950195 C198.26607238 408.75384528 196.46318361 409.26779104 194.66015625 409.78125 C193.88397446 410.0112822 193.10779266 410.24131439 192.30809021 410.47831726 C191.58517288 410.6820546 190.86225555 410.88579193 190.11743164 411.09570312 C189.50936172 411.27202271 188.90129181 411.44834229 188.27479553 411.63000488 C181.83982115 412.6766524 176.23104114 411.83351842 170.02587891 410.05078125 C169.26824721 409.84210167 168.51061552 409.63342209 167.73002529 409.41841888 C165.22606456 408.72613736 162.72643934 408.01937343 160.2265625 407.3125 C158.4438926 406.81659277 156.66096301 406.32161827 154.87779236 405.82751465 C150.10856873 404.50338103 145.34287982 403.16692538 140.57774734 401.82815552 C135.65540325 400.44758822 130.72982704 399.07866 125.80444336 397.70898438 C118.89064499 395.78535589 111.97779463 393.85839359 105.06629086 391.92653656 C94.16295926 388.87892285 83.25449653 385.8505602 72.33984375 382.84375 C71.64455566 382.65220337 70.94926758 382.46065674 70.23291016 382.26330566 C66.92441808 381.35201376 63.61578068 380.44125198 60.30706787 379.53076172 C54.41364037 377.90848655 48.52130435 376.28225923 42.62890625 374.65625 C40.95255829 374.19378886 39.27620654 373.73134148 37.59985161 373.26890564 C36.73715184 373.03092223 35.87445207 372.79293882 34.98560989 372.5477438 C34.33035863 372.36698834 33.67510736 372.18623289 33 372 C30.88880462 351.37917104 28.94908205 330.74748626 27.11551344 310.10033906 C26.75068946 305.99633252 26.38395748 301.89249635 26.01750183 297.78863525 C25.30464806 289.80212142 24.59352809 281.81545419 23.88310269 273.82872402 C23.30591234 267.34011408 22.72811645 260.85155832 22.14990807 254.36303902 C22.0670537 253.43325059 21.98419933 252.50346216 21.89883422 251.54549833 C21.73044951 249.65590395 21.56206411 247.76630963 21.39367803 245.87671537 C19.82403589 228.26157711 18.25646331 210.64625516 16.68956568 193.03087259 C15.25626836 176.91815469 13.82043992 160.80566351 12.38343123 144.69327622 C10.90359742 128.10047989 9.42538898 111.50753952 7.94897765 94.91443831 C7.1216983 85.61711016 6.29378514 76.31983953 5.4641819 67.02271843 C4.75988028 59.12959313 4.05711954 51.23633251 3.35636667 43.34289133 C2.99898698 39.3177585 2.64089345 35.29269253 2.2808876 31.26779366 C1.95158415 27.58593748 1.62431157 23.90390669 1.29867216 20.2217247 C1.12432527 18.25631286 0.94780226 16.29109444 0.77120715 14.32588333 C0.66855538 13.16052474 0.56590361 11.99516616 0.46014118 10.79449368 C0.37063452 9.78892845 0.28112786 8.78336322 0.18890887 7.74732631 C0.01170325 5.17020184 0 2.58320971 0 0 Z " fill="#FE4C1E" transform="translate(74,100)"/>
<path d="M0 0 C75.24 0 150.48 0 228 0 C227.25124782 8.9850262 226.49625534 17.96879848 225.69775391 26.94946289 C225.56419119 28.46103006 225.43239917 29.97275457 225.30224609 31.48461914 C225.11198607 33.6919659 224.91599906 35.89873699 224.71875 38.10546875 C224.54762695 40.05682739 224.54762695 40.05682739 224.37304688 42.04760742 C224 45 224 45 223 46 C220.77241743 46.09703132 218.54169074 46.12186673 216.31199646 46.12025452 C215.60468748 46.12110894 214.89737849 46.12196337 214.1686359 46.12284368 C211.78093718 46.12450055 209.39330757 46.11897377 207.00561523 46.11352539 C205.30105593 46.11324354 203.59649649 46.11340122 201.89193726 46.1139679 C197.249572 46.11425594 192.60723235 46.10835806 187.96487308 46.10139394 C183.11884105 46.09516159 178.27280849 46.0945567 173.42677307 46.09336853 C164.24344036 46.09025486 155.0601195 46.082041 145.87679201 46.07201904 C135.42473229 46.060859 124.97267202 46.05534773 114.52060783 46.05032361 C93.01373193 46.03985841 71.50686671 46.02225829 50 46 C50.13703339 47.08430298 50.27406677 48.16860596 50.41525269 49.2857666 C50.59701922 50.73022029 50.77874947 52.17467854 50.96044922 53.61914062 C51.05053757 54.33120667 51.14062592 55.04327271 51.23344421 55.7769165 C51.97424731 61.6754263 52.59537869 67.57866013 53.125 73.5 C53.21136719 74.41007812 53.29773438 75.32015625 53.38671875 76.2578125 C53.46792969 77.15242188 53.54914063 78.04703125 53.6328125 78.96875 C53.70387207 79.74669922 53.77493164 80.52464844 53.84814453 81.32617188 C54.04990709 84.87874987 54 88.44169724 54 92 C108.45 92 162.9 92 219 92 C219 102.12359167 219 102.12359167 218.62036133 105.99829102 C218.53620972 106.88006012 218.45205811 107.76182922 218.36535645 108.6703186 C218.27185913 109.60540253 218.17836182 110.54048645 218.08203125 111.50390625 C217.93586365 113.02182266 217.93586365 113.02182266 217.78674316 114.57040405 C217.57580797 116.75787322 217.36302935 118.94516526 217.14859009 121.1322937 C216.56894821 127.04824094 216.0037907 132.96557479 215.4375 138.8828125 C215.31933426 140.11444626 215.20116852 141.34608002 215.079422 142.61503601 C213.76311049 156.38376466 212.5334972 170.1600426 211.3125 183.9375 C211.21031158 185.08985138 211.10812317 186.24220276 211.00283813 187.42947388 C210.61203658 191.83714272 210.22126875 196.24481446 209.83113098 200.65254211 C208.90500772 211.10329876 207.95518701 221.55186465 207 232 C194.99722626 235.56595432 183.0133435 239.08857363 170.84375 242.04296875 C164.29224113 243.67418793 157.80251473 245.52480198 151.30419922 247.35449219 C148.97684748 248.00648604 146.64712571 248.64921908 144.31640625 249.2890625 C142.77341347 249.7134543 141.23044444 250.13793249 139.6875 250.5625 C138.94024658 250.76762207 138.19299316 250.97274414 137.4230957 251.18408203 C131.85762184 252.72578156 126.36523211 254.44792005 120.89453125 256.30078125 C113.62184619 258.0576107 107.33637441 256.2969762 100.3125 254.375 C99.30372803 254.10574707 98.29495605 253.83649414 97.25561523 253.55908203 C89.82057741 251.55332922 82.44518682 249.37100486 75.08276367 247.11523438 C69.31122082 245.35739229 63.51410862 243.81984161 57.65234375 242.39575195 C51.04422224 240.78636001 44.52578352 238.91201301 38 237 C36.46106153 236.55686069 34.9219923 236.11417533 33.3828125 235.671875 C31.81762981 235.2190213 30.25252454 234.76589995 28.6875 234.3125 C27.93927979 234.09795166 27.19105957 233.88340332 26.42016602 233.66235352 C21.11411004 232.11411004 21.11411004 232.11411004 20 231 C19.80003798 229.5227866 19.66246817 228.03705141 19.55102539 226.55053711 C19.4774733 225.60121811 19.4039212 224.65189911 19.32814026 223.67381287 C19.25208054 222.63547806 19.17602081 221.59714325 19.09765625 220.52734375 C19.01503036 219.45690323 18.93240448 218.38646271 18.84727478 217.28358459 C18.58135777 213.83520456 18.32133112 210.38641866 18.0625 206.9375 C16.62843974 187.46471293 16.62843974 187.46471293 14.36499023 168.07641602 C14 165 14 165 14 160 C29.18 160 44.36 160 60 160 C61.52066802 164.56200405 61.65603912 169.22483739 62.0625 174 C62.15337891 174.99128906 62.24425781 175.98257813 62.33789062 177.00390625 C62.91724666 183.6861029 63.11137842 190.29419421 63 197 C63.70527832 197.0918457 64.41055664 197.18369141 65.13720703 197.27832031 C72.05700274 198.21897797 78.61647211 199.92823535 85.3125 201.875 C86.21863037 202.13756592 87.12476074 202.40013184 88.05834961 202.6706543 C91.46559794 203.66302414 94.87126546 204.65970366 98.26904297 205.68408203 C100.25887741 206.28265011 102.25347834 206.86171533 104.25 207.4375 C105.89742187 207.93056641 105.89742187 207.93056641 107.578125 208.43359375 C116.34263934 209.88434099 124.95010028 206.90246303 133.37426758 204.67138672 C135.42824697 204.12745039 137.48433521 203.59221629 139.54101562 203.05859375 C146.06530583 201.35639964 152.5546469 199.5984553 158.96899414 197.51123047 C161 197 161 197 165 197 C165 193.04 165 189.08 165 185 C166.32 169.49 167.64 153.98 169 138 C117.19 138 65.38 138 12 138 C10.576875 122.469375 9.15375 106.93875 7.6875 90.9375 C7.24494873 86.12406006 6.80239746 81.31062012 6.34643555 76.35131836 C5.78869629 70.24328613 5.78869629 70.24328613 5.52424622 67.33937073 C5.34790103 65.40849089 5.17051754 63.47770563 4.99214172 61.54701233 C3.09967695 41.04557523 1.57944835 20.5328286 0 0 Z " fill="#EBE8E7" transform="translate(142,176)"/>
<path d="M0 0 C48.84 0 97.68 0 148 0 C148 12.35600907 148 12.35600907 147.44921875 17.3359375 C147.3291748 18.46515625 147.20913086 19.594375 147.08544922 20.7578125 C146.88846436 22.54832031 146.88846436 22.54832031 146.6875 24.375 C146.4095988 27.00753704 146.13385604 29.64015102 145.86328125 32.2734375 C145.7924231 32.96290466 145.72156494 33.65237183 145.64855957 34.36273193 C144.59110635 44.83855662 143.81007179 55.33990755 143.00268555 65.83740234 C142.91299248 66.9856398 142.91299248 66.9856398 142.82148743 68.15707397 C142.70997656 69.58627337 142.60066545 71.01564696 142.49406433 72.44522095 C142.18913843 76.34416662 141.66664434 80.14820063 141 84 C140.84921279 86.37350231 140.72745926 88.74892086 140.625 91.125 C140.24272773 98.66194013 139.47449278 106.12776981 138.625 113.625 C137.31882582 125.23632753 136.35486024 136.84841533 135.5 148.5 C134.5966427 160.79397623 133.52327618 173.03567429 132.125 185.28515625 C131.00643624 195.34057837 130.2417229 205.41140958 129.5 215.5 C128.59689839 227.78359302 127.5291873 240.01567345 126.12719727 252.25439453 C124.78910776 264.2525679 123.93312772 276.2867026 123.08984375 288.328125 C122.42490657 297.62968802 121.48089708 306.78573688 120 316 C114.63127001 318.1005457 109.33833586 319.7925706 103.75 321.1875 C95.58486739 323.28167038 87.47603744 325.54573648 79.375 327.875 C76.96224726 328.56773508 74.54948682 329.26044332 72.13671875 329.953125 C70.94481934 330.29537109 69.75291992 330.63761719 68.52490234 330.99023438 C54.01469151 335.14692034 39.48147194 339.17780346 24.86083984 342.92871094 C18.64185135 344.5352373 12.52175741 346.3066951 6.42578125 348.3359375 C4 349 4 349 0 349 C-0.33 333.49 -0.66 317.98 -1 302 C2.3 301.154375 5.6 300.30875 9 299.4375 C18.3864528 297.00929479 27.69456218 294.36923146 36.98950195 291.61376953 C44.98253937 289.2593928 53.02287913 287.13662827 61.09375 285.06738281 C68.13738753 283.2522916 75.07244983 281.2202318 82 279 C85.81820101 277.80213302 88.93355631 277 93 277 C92.98935013 276.33006516 92.97870026 275.66013031 92.96772766 274.96989441 C92.90841788 268.35103154 93.25248583 261.88299794 93.91796875 255.30078125 C94.06413635 253.78697372 94.06413635 253.78697372 94.21325684 252.24258423 C94.42375376 250.06693284 94.63653861 247.8915018 94.85140991 245.71627808 C95.43261006 239.83012915 95.99660261 233.94232397 96.5625 228.0546875 C96.68066574 226.82965012 96.79883148 225.60461273 96.920578 224.342453 C98.35874657 209.37514425 99.67889365 194.39736348 100.99716187 179.4190979 C101.19760374 177.14194141 101.39845546 174.86482095 101.59973145 172.58773804 C101.78049181 170.54203584 101.96031256 168.49625019 102.13879395 166.4503479 C103.00715336 156.62341386 104.01811258 146.8188742 105 137 C50.55 137 -3.9 137 -60 137 C-64 96 -64 96 -64 91 C-6.91 90.67 50.18 90.34 109 90 C110.485 73.665 110.485 73.665 112 57 C112.66 53.04 113.32 49.08 114 45 C76.38 45 38.76 45 0 45 C0 30.15 0 15.3 0 0 Z " fill="#FE651E" transform="translate(256,131)"/>
<path d="M0 0 C34.65 0 69.3 0 105 0 C104.40720053 11.26318996 103.79634421 22.43262103 102.765625 33.6484375 C102.64578698 34.98010277 102.52623847 36.31179413 102.4069519 37.64350891 C102.09072765 41.16325003 101.77005438 44.68257138 101.44828033 48.20180893 C101.18061611 51.13546091 100.91564585 54.06935391 100.65062141 57.00324535 C98.1802152 84.34294193 95.61453461 111.67372653 93 139 C89.17520522 140.12487994 85.34941105 141.24632401 81.5234375 142.3671875 C80.44892334 142.68324951 79.37440918 142.99931152 78.26733398 143.32495117 C71.15970599 145.40490183 64.04036397 147.29585689 56.84375 149.04296875 C50.29224113 150.67418793 43.80251473 152.52480198 37.30419922 154.35449219 C34.97684748 155.00648604 32.64712571 155.64921908 30.31640625 156.2890625 C28.77341347 156.7134543 27.23044444 157.13793249 25.6875 157.5625 C24.94024658 157.76762207 24.19299316 157.97274414 23.4230957 158.18408203 C17.85762184 159.72578156 12.36523211 161.44792005 6.89453125 163.30078125 C-0.37815381 165.0576107 -6.66362559 163.2969762 -13.6875 161.375 C-14.69627197 161.10574707 -15.70504395 160.83649414 -16.74438477 160.55908203 C-24.17942259 158.55332922 -31.55481318 156.37100486 -38.91723633 154.11523438 C-44.68877918 152.35739229 -50.48589138 150.81984161 -56.34765625 149.39575195 C-62.95577776 147.78636001 -69.47421648 145.91201301 -76 144 C-77.53893847 143.55686069 -79.0780077 143.11417533 -80.6171875 142.671875 C-82.18237019 142.2190213 -83.74747546 141.76589995 -85.3125 141.3125 C-86.06072021 141.09795166 -86.80894043 140.88340332 -87.57983398 140.66235352 C-92.88588996 139.11411004 -92.88588996 139.11411004 -94 138 C-94.19996202 136.5227866 -94.33753183 135.03705141 -94.44897461 133.55053711 C-94.5225267 132.60121811 -94.5960788 131.65189911 -94.67185974 130.67381287 C-94.74791946 129.63547806 -94.82397919 128.59714325 -94.90234375 127.52734375 C-95.02628258 125.92168297 -95.02628258 125.92168297 -95.15272522 124.28358459 C-95.41864223 120.83520456 -95.67866888 117.38641866 -95.9375 113.9375 C-97.37156026 94.46471293 -97.37156026 94.46471293 -99.63500977 75.07641602 C-100 72 -100 72 -100 67 C-84.82 67 -69.64 67 -54 67 C-52.47933198 71.56200405 -52.34396088 76.22483739 -51.9375 81 C-51.84662109 81.99128906 -51.75574219 82.98257813 -51.66210938 84.00390625 C-51.08275334 90.6861029 -50.88862158 97.29419421 -51 104 C-49.94208252 104.13776855 -49.94208252 104.13776855 -48.86279297 104.27832031 C-41.94299726 105.21897797 -35.38352789 106.92823535 -28.6875 108.875 C-27.78136963 109.13756592 -26.87523926 109.40013184 -25.94165039 109.6706543 C-22.53440206 110.66302414 -19.12873454 111.65970366 -15.73095703 112.68408203 C-13.74112259 113.28265011 -11.74652166 113.86171533 -9.75 114.4375 C-8.65171875 114.76621094 -7.5534375 115.09492188 -6.421875 115.43359375 C2.34263934 116.88434099 10.95010028 113.90246303 19.37426758 111.67138672 C21.42824697 111.12745039 23.48433521 110.59221629 25.54101562 110.05859375 C32.06530583 108.35639964 38.5546469 106.5984553 44.96899414 104.51123047 C47 104 47 104 51 104 C50.98404785 103.32300049 50.9680957 102.64600098 50.95166016 101.94848633 C50.84766801 93.84722786 51.40295537 85.87382832 52.171875 77.81958008 C52.37369183 75.7012311 52.56641913 73.58220411 52.7578125 71.46289062 C53.60979888 62.26139817 54.77639506 53.17703704 56 44 C37.52 44 19.04 44 0 44 C0 29.48 0 14.96 0 0 Z " fill="#FFFEFE" transform="translate(256,269)"/>
<path d="M0 0 C15.18 0 30.36 0 46 0 C47.52066802 4.56200405 47.65603912 9.22483739 48.0625 14 C48.15337891 14.99128906 48.24425781 15.98257812 48.33789062 17.00390625 C48.91724666 23.6861029 49.11137842 30.29419421 49 37 C49.70527832 37.0918457 50.41055664 37.18369141 51.13720703 37.27832031 C60.83957219 38.59723267 70.06436825 41.50443032 79.43505859 44.25830078 C84.32183642 45.67140101 89.24298127 46.95097854 94.1640625 48.23828125 C96.1265225 48.76538827 98.07225989 49.35741996 100 50 C100 65.51 100 81.02 100 97 C86.89223336 94.37844667 74.20419918 91.12075832 61.4375 87.21630859 C55.54706465 85.42765524 49.63503091 83.84907043 43.65405273 82.39624023 C37.04540832 80.78647437 30.52636065 78.9121821 24 77 C22.46106153 76.55686069 20.9219923 76.11417533 19.3828125 75.671875 C17.81762981 75.2190213 16.25252454 74.76589995 14.6875 74.3125 C13.93927979 74.09795166 13.19105957 73.88340332 12.42016602 73.66235352 C7.11411004 72.11411004 7.11411004 72.11411004 6 71 C5.80003798 69.5227866 5.66246817 68.03705141 5.55102539 66.55053711 C5.44069725 65.12655861 5.44069725 65.12655861 5.32814026 63.67381287 C5.25208054 62.63547806 5.17602081 61.59714325 5.09765625 60.52734375 C5.01503036 59.45690323 4.93240448 58.38646271 4.84727478 57.28358459 C4.58135777 53.83520456 4.32133112 50.38641866 4.0625 46.9375 C2.62843974 27.46471293 2.62843974 27.46471293 0.36499023 8.07641602 C0 5 0 5 0 0 Z " fill="#EBE9E9" transform="translate(156,336)"/>
<path d="M0 0 C37.29 0 74.58 0 113 0 C113 14.70071805 111.33094048 29.35965477 110 44 C73.7 44 37.4 44 0 44 C0 29.48 0 14.96 0 0 Z " fill="#FFFEFE" transform="translate(256,177)"/>
<path d="M0 0 C26 0 26 0 31.3828125 4.8125 C32.90625 7.8203125 32.90625 7.8203125 34.125 11 C34.62773437 12.04929687 35.13046875 13.09859375 35.6484375 14.1796875 C36.86765978 16.75881155 37.97175704 19.34032966 39 22 C41.91920637 17.86914713 44.6089097 14.02392597 46.421875 9.27734375 C47.75 5.9375 47.75 5.9375 53 0 C61.58 0 70.16 0 79 0 C79 22.77 79 45.54 79 69 C71.08 69 63.16 69 55 69 C54.67 59.1 54.34 49.2 54 39 C49.47506193 45.90617185 49.47506193 45.90617185 44.96533203 52.82226562 C44.40185059 53.67498047 43.83836914 54.52769531 43.2578125 55.40625 C42.6817627 56.28603516 42.10571289 57.16582031 41.51220703 58.07226562 C41.01317871 58.70841797 40.51415039 59.34457031 40 60 C39.34 60 38.68 60 38 60 C36.68725586 58.27172852 36.68725586 58.27172852 35.21484375 55.87890625 C34.68439453 55.02619141 34.15394531 54.17347656 33.60742188 53.29492188 C33.05634766 52.39322266 32.50527344 51.49152344 31.9375 50.5625 C30.84340411 48.79237738 29.74840006 47.02281565 28.65234375 45.25390625 C28.16757568 44.46314697 27.68280762 43.6723877 27.18334961 42.85766602 C26.13293931 41.06077854 26.13293931 41.06077854 25 40 C24.67 49.57 24.34 59.14 24 69 C16.08 69 8.16 69 0 69 C0 46.23 0 23.46 0 0 Z " fill="#000000" transform="translate(259,0)"/>
<path d="M0 0 C7.92 0 15.84 0 24 0 C24 7.26 24 14.52 24 22 C30.6 22 37.2 22 44 22 C44 14.74 44 7.48 44 0 C51.92 0 59.84 0 68 0 C68 22.77 68 45.54 68 69 C60.08 69 52.16 69 44 69 C44 61.41 44 53.82 44 46 C37.4 46 30.8 46 24 46 C24 53.59 24 61.18 24 69 C16.08 69 8.16 69 0 69 C0 46.23 0 23.46 0 0 Z " fill="#000000" transform="translate(108,0)"/>
<path d="M0 0 C18.15 0 36.3 0 55 0 C55 8.57230027 54.93735039 16.74287662 54.125 25.2109375 C53.99182373 26.67945663 53.99182373 26.67945663 53.85595703 28.17764282 C53.57653559 31.24400465 53.28845159 34.3094759 53 37.375 C52.80671214 39.47911351 52.61399944 41.58327994 52.421875 43.6875 C51.95454026 48.79230049 51.47944595 53.89632336 51 59 C49.91452881 59.27880005 49.91452881 59.27880005 48.80712891 59.56323242 C30.13440185 64.34532699 30.13440185 64.34532699 11.55908203 69.48901367 C7.68009929 70.5944999 4.01073652 71.33154391 0 72 C0 48.24 0 24.48 0 0 Z " fill="#FF651E" transform="translate(256,314)"/>
<path d="M0 0 C21.12 0 42.24 0 64 0 C64 15.18 64 30.36 64 46 C44.2 46 24.4 46 4 46 C3.34 39.338125 2.68 32.67625 2 25.8125 C1.79117188 23.71753174 1.58234375 21.62256348 1.3671875 19.46411133 C1.20293219 17.7951036 1.03885754 16.12607808 0.875 14.45703125 C0.78863281 13.59734741 0.70226562 12.73766357 0.61328125 11.85192871 C0.53207031 11.02012085 0.45085937 10.18831299 0.3671875 9.33129883 C0.29612793 8.61404129 0.22506836 7.89678375 0.15185547 7.15779114 C-0.01567882 4.77721174 0 2.38646726 0 0 Z " fill="#FE4C1E" transform="translate(192,222)"/>
<path d="M0 0 C21.45 0 42.9 0 65 0 C65 7.59 65 15.18 65 23 C58.07 23 51.14 23 44 23 C44 38.18 44 53.36 44 69 C36.41 69 28.82 69 21 69 C21 53.82 21 38.64 21 23 C14.07 23 7.14 23 0 23 C0 15.41 0 7.82 0 0 Z " fill="#000000" transform="translate(185,0)"/>
<path d="M0 0 C7.92 0 15.84 0 24 0 C24 15.18 24 30.36 24 46 C34.89 46 45.78 46 57 46 C57 53.59 57 61.18 57 69 C38.19 69 19.38 69 0 69 C0 46.23 0 23.46 0 0 Z " fill="#000000" transform="translate(348,0)"/>
</svg>
